<svg width="1304" height="227" viewBox="0 0 1304 227" fill="none" xmlns="http://www.w3.org/2000/svg">
<g clip-path="url(#clip0_3549_605)">
<path d="M1144.97 24.6878C1145.75 25.5378 1145.98 27.3078 1145.47 28.6178C1144.97 29.9278 1143.94 30.2778 1143.17 29.4278C1142.4 28.6178 1142.16 26.8378 1142.67 25.5278C1142.98 24.7178 1143.53 24.2578 1144.07 24.2578C1144.38 24.2578 1144.7 24.3978 1144.97 24.6878Z" fill="#662D91"/>
<path d="M202.02 86.4944C202.04 88.0544 201.31 89.3244 200.39 89.3644C199.47 89.4044 198.71 88.1644 198.69 86.6044C198.67 85.0444 199.4 83.7744 200.32 83.7344H200.36C201.26 83.7344 201.99 84.9344 202.01 86.4944H202.02Z" fill="#662D91"/>
<path d="M242.27 83.8984C243.19 83.9384 243.92 85.2484 243.9 86.8084C243.88 88.3684 243.12 89.6084 242.2 89.5684C241.28 89.5384 240.55 88.2184 240.57 86.6684C240.59 85.1484 241.35 83.9084 242.25 83.9084H242.27V83.8984Z" fill="#662D91"/>
<path d="M284.18 86.2422C285.1 86.3122 285.81 87.6222 285.77 89.1822C285.73 90.7422 284.95 91.9422 284.03 91.8722C283.11 91.8022 282.4 90.4922 282.44 88.9322C282.48 87.4122 283.22 86.2422 284.09 86.2422H284.17H284.18Z" fill="#662D91"/>
<path d="M160.17 89.5744C160.25 91.1344 159.56 92.4744 158.64 92.6244C157.74 92.7644 156.92 91.5944 156.86 90.0344C156.78 88.4744 157.47 87.1344 158.39 86.9844H158.52C159.38 86.9844 160.11 88.1144 160.17 89.5744Z" fill="#662D91"/>
<path d="M326.05 90.3125C326.97 90.4225 327.66 91.7625 327.6 93.3225C327.54 94.8825 326.74 96.0525 325.82 95.9425C324.9 95.8325 324.21 94.4925 324.27 92.9325C324.33 91.4425 325.07 90.3125 325.92 90.3125H326.05Z" fill="#662D91"/>
<path d="M118.64 98.3547C118.81 99.8747 118.2 101.365 117.3 101.645C116.4 101.925 115.52 100.935 115.35 99.4147C115.18 97.8547 115.79 96.4047 116.69 96.1247C116.8 96.0847 116.9 96.0547 117 96.0547C117.78 96.0547 118.49 97.0147 118.63 98.3547H118.64Z" fill="#662D91"/>
<path d="M367.84 96.2331V96.2031C368.76 96.3831 369.43 97.7231 369.35 99.2831C369.27 100.843 368.45 101.973 367.53 101.833C366.61 101.693 365.94 100.313 366.02 98.7531C366.1 97.3031 366.84 96.2031 367.67 96.2031C367.73 96.2031 367.77 96.2031 367.84 96.2331Z" fill="#662D91"/>
<path d="M409.54 103.491C410.46 103.671 411.11 105.051 411.01 106.611C410.93 108.171 410.09 109.271 409.17 109.091C408.27 108.951 407.6 107.531 407.7 105.971C407.78 104.551 408.52 103.461 409.35 103.461C409.41 103.461 409.48 103.461 409.54 103.501V103.491Z" fill="#662D91"/>
<path d="M451.15 111.674C452.07 111.884 452.72 113.264 452.62 114.824C452.51 116.344 451.68 117.484 450.76 117.264C449.86 117.084 449.19 115.674 449.31 114.144C449.41 112.694 450.13 111.664 450.96 111.664H451.15V111.674Z" fill="#662D91"/>
<path d="M78.0899 115.949C78.3999 117.399 77.9399 119.029 77.0599 119.529C76.1999 120.059 75.2399 119.279 74.9499 117.799C74.6299 116.349 75.0999 114.719 75.9599 114.219C76.1499 114.109 76.3399 114.039 76.5299 114.039C77.2199 114.039 77.8699 114.779 78.0999 115.949H78.0899Z" fill="#662D91"/>
<path d="M492.75 119.991C493.67 120.171 494.32 121.551 494.22 123.111C494.12 124.631 493.3 125.771 492.38 125.591C491.48 125.411 490.81 124.031 490.91 122.471C491.02 121.021 491.73 119.961 492.56 119.961C492.62 119.961 492.69 119.961 492.75 119.991Z" fill="#662D91"/>
<path d="M534.39 126.438C535.31 126.547 536 127.887 535.94 129.447C535.88 131.007 535.08 132.177 534.16 132.067C533.24 131.997 532.55 130.648 532.61 129.098C532.67 127.608 533.41 126.438 534.26 126.438H534.39Z" fill="#662D91"/>
<path d="M40.26 145.989C40.76 147.259 40.55 149.039 39.8 149.879C39.02 150.729 37.98 150.379 37.48 149.069C36.98 147.799 37.19 146.019 37.96 145.179C38.23 144.859 38.55 144.719 38.88 144.719C39.4 144.719 39.95 145.179 40.26 145.999V145.989Z" fill="#662D91"/>
<path d="M6.46007 187.812C7.03007 189.052 6.88007 190.822 6.15007 191.742C5.42007 192.702 4.37007 192.452 3.80007 191.212C3.25007 189.972 3.38007 188.202 4.11007 187.242V187.272C4.42007 186.882 4.78007 186.672 5.14007 186.672C5.64007 186.672 6.12007 187.062 6.46007 187.802V187.812Z" fill="#662D91"/>
<path d="M1059.45 0.000848057C1060.52 0.0408481 1061.33 1.56085 1061.29 3.33085C1061.25 5.10085 1060.37 6.48085 1059.32 6.41085C1058.27 6.34085 1057.46 4.85085 1057.48 3.08085C1057.52 1.34085 1058.36 -0.0391519 1059.39 0.000848057H1059.45Z" fill="#662D91"/>
<path d="M1019.49 6.26844C1019.59 8.03844 1018.84 9.59844 1017.81 9.80844C1016.76 10.0184 1015.82 8.74844 1015.72 6.97844C1015.59 5.23844 1016.35 3.64844 1017.37 3.43844C1017.45 3.39844 1017.52 3.39844 1017.6 3.39844C1018.54 3.39844 1019.36 4.59844 1019.48 6.26844H1019.49Z" fill="#662D91"/>
<path d="M1101.3 8.74969C1102.33 9.09969 1102.97 10.7997 1102.77 12.5397C1102.56 14.2797 1101.55 15.4097 1100.53 15.0197C1099.5 14.6697 1098.85 12.9697 1099.06 11.2297C1099.25 9.70969 1100.04 8.67969 1100.92 8.67969C1101.05 8.67969 1101.17 8.70969 1101.3 8.74969Z" fill="#662D91"/>
<path d="M978.02 16.2616C978.19 18.0016 977.5 19.6616 976.47 19.9416V19.9816C975.44 20.2616 974.46 19.0916 974.27 17.3616C974.1 15.5916 974.79 13.9616 975.82 13.6416C975.93 13.6016 976.03 13.6016 976.13 13.6016C977.05 13.6016 977.85 14.7016 978.02 16.2616Z" fill="#662D91"/>
<path d="M936.9 29.7522C937.11 31.4922 936.46 33.2222 935.43 33.5822C934.4 33.9322 933.4 32.8422 933.17 31.1022C932.96 29.3622 933.61 27.6622 934.64 27.3122C934.76 27.2422 934.91 27.2422 935.04 27.2422C935.92 27.2422 936.69 28.2722 936.9 29.7522Z" fill="#662D91"/>
<path d="M896 45.1216C896.23 46.8516 895.58 48.5516 894.58 48.9416C893.55 49.3716 892.53 48.2716 892.3 46.5716C892.07 44.8416 892.7 43.1016 893.72 42.7116C893.87 42.6416 893.99 42.6016 894.14 42.6016C895.02 42.6016 895.79 43.6316 896 45.1116V45.1216Z" fill="#662D91"/>
<path d="M855.22 61.4087C855.47 63.1487 854.84 64.8787 853.82 65.3087C852.81 65.7387 851.79 64.6688 851.54 62.9388C851.29 61.2088 851.92 59.4988 852.94 59.0788C853.09 59.0088 853.23 58.9688 853.38 58.9688C854.24 58.9688 855.01 59.9587 855.22 61.4087Z" fill="#662D91"/>
<path d="M1179.53 60.6719C1180.41 61.5919 1180.68 63.5819 1180.14 65.0619C1179.59 66.5819 1178.42 67.0419 1177.54 66.1219C1176.64 65.2019 1176.37 63.2219 1176.91 61.6919C1177.27 60.7319 1177.89 60.1719 1178.52 60.1719C1178.85 60.1719 1179.21 60.3519 1179.53 60.6619V60.6719Z" fill="#662D91"/>
<path d="M814.52 78.2C814.77 79.9 814.14 81.67 813.12 82.06C812.11 82.49 811.07 81.46 810.84 79.72C810.59 77.98 811.2 76.25 812.22 75.82C812.37 75.78 812.53 75.75 812.68 75.75C813.54 75.75 814.29 76.74 814.52 78.19V78.2Z" fill="#662D91"/>
<path d="M773.81 94.8784C774.06 96.6184 773.43 98.3184 772.41 98.7384C771.38 99.1684 770.36 98.0984 770.13 96.3684C769.88 94.6384 770.51 92.9384 771.53 92.5084C771.68 92.4384 771.82 92.3984 771.97 92.3984C772.83 92.3984 773.6 93.3884 773.81 94.8784Z" fill="#662D91"/>
<path d="M234.19 95.9791C234.19 97.7491 233.35 99.1991 232.31 99.2391C231.26 99.2391 230.4 97.8191 230.4 96.0491C230.38 94.2791 231.22 92.8291 232.26 92.7891H232.28C233.33 92.7891 234.16 94.2091 234.19 95.9791Z" fill="#662D91"/>
<path d="M274.21 93.4609C275.26 93.4909 276.09 94.9809 276.07 96.7509C276.03 98.5209 275.17 99.9009 274.12 99.8709C273.07 99.8309 272.24 98.3509 272.28 96.5809C272.3 94.8509 273.14 93.4609 274.16 93.4609H274.2H274.21Z" fill="#662D91"/>
<path d="M192.32 98.2522C192.4 100.022 191.59 101.542 190.54 101.682V101.652C189.51 101.792 188.61 100.442 188.53 98.6722C188.47 96.9022 189.26 95.3822 190.31 95.2722C190.31 95.2722 190.39 95.2422 190.44 95.2422C191.42 95.2422 192.26 96.5522 192.32 98.2522Z" fill="#662D91"/>
<path d="M316.12 96.0491H316.14C317.19 96.1591 317.98 97.6391 317.92 99.4091C317.88 101.179 316.98 102.559 315.93 102.459C314.88 102.389 314.09 100.869 314.13 99.0891C314.19 97.3891 315.03 96.0391 316.04 96.0391H316.12V96.0491Z" fill="#662D91"/>
<path d="M357.99 100.828C359.04 100.968 359.81 102.528 359.73 104.298C359.65 106.068 358.72 107.378 357.68 107.238C356.63 107.098 355.86 105.538 355.94 103.768C356.02 102.068 356.86 100.828 357.82 100.828H357.99Z" fill="#662D91"/>
<path d="M150.66 105.511C150.83 107.251 150.11 108.911 149.09 109.161C148.06 109.441 147.08 108.271 146.91 106.501C146.74 104.771 147.45 103.101 148.48 102.821C148.58 102.821 148.69 102.781 148.79 102.781C149.71 102.781 150.51 103.911 150.65 105.511H150.66Z" fill="#662D91"/>
<path d="M399.73 107.633C400.78 107.843 401.53 109.443 401.41 111.173C401.31 112.943 400.36 114.223 399.32 114.043C398.29 113.833 397.54 112.233 397.64 110.503C397.74 108.833 398.58 107.633 399.52 107.633H399.73Z" fill="#662D91"/>
<path d="M733.05 111.238C733.3 112.968 732.65 114.708 731.65 115.098C730.62 115.528 729.6 114.458 729.37 112.728C729.12 110.988 729.75 109.288 730.77 108.868C730.92 108.798 731.06 108.758 731.21 108.758C732.07 108.758 732.84 109.788 733.05 111.238Z" fill="#662D91"/>
<path d="M441.37 116.102C442.4 116.352 443.13 117.942 443 119.712C442.85 121.482 441.91 122.722 440.86 122.472C439.83 122.262 439.1 120.632 439.23 118.862C439.36 117.272 440.17 116.102 441.11 116.102H441.36H441.37Z" fill="#662D91"/>
<path d="M109.8 120.879C110.11 122.579 109.55 124.389 108.54 124.879C107.56 125.409 106.49 124.449 106.17 122.749C105.88 121.049 106.42 119.279 107.43 118.749C107.62 118.639 107.81 118.609 108 118.609C108.82 118.609 109.55 119.499 109.8 120.879Z" fill="#662D91"/>
<path d="M692.23 127.071C692.44 128.811 691.79 130.511 690.76 130.901C689.73 131.251 688.73 130.161 688.5 128.421C688.29 126.681 688.94 124.981 689.97 124.601C690.12 124.561 690.24 124.531 690.37 124.531C691.25 124.531 692.05 125.561 692.23 127.081V127.071Z" fill="#662D91"/>
<path d="M482.88 125.844C483.93 126.124 484.64 127.754 484.49 129.494C484.34 131.264 483.38 132.464 482.33 132.224C481.3 131.974 480.57 130.344 480.74 128.574C480.86 126.984 481.68 125.844 482.6 125.844H482.87H482.88Z" fill="#662D91"/>
<path d="M524.33 135.79C525.38 136 526.11 137.63 525.96 139.37C525.83 141.14 524.87 142.38 523.84 142.13C522.79 141.92 522.06 140.29 522.21 138.55C522.34 136.92 523.15 135.75 524.07 135.75C524.15 135.75 524.24 135.75 524.32 135.78L524.33 135.79Z" fill="#662D91"/>
<path d="M651.07 140.355C651.24 142.095 650.52 143.725 649.5 144.005C648.45 144.285 647.49 143.085 647.32 141.315C647.17 139.585 647.89 137.955 648.91 137.665C649.02 137.625 649.1 137.625 649.2 137.625C650.12 137.625 650.94 138.755 651.06 140.355H651.07Z" fill="#662D91"/>
<path d="M565.87 143.539C566.92 143.679 567.71 145.239 567.63 147.009C567.55 148.779 566.62 150.089 565.58 149.949C564.53 149.809 563.76 148.249 563.84 146.479C563.92 144.819 564.74 143.539 565.72 143.539H565.87Z" fill="#662D91"/>
<path d="M609.48 148.222C609.52 149.992 608.73 151.482 607.68 151.582C606.63 151.652 605.73 150.312 605.69 148.532C605.63 146.762 606.44 145.242 607.49 145.172H607.57C608.58 145.172 609.41 146.482 609.48 148.222Z" fill="#662D91"/>
<path d="M70.9701 147.153C71.4701 148.713 71.1401 150.663 70.2201 151.513C69.3001 152.363 68.1501 151.763 67.6401 150.203C67.1401 148.643 67.4901 146.693 68.4201 145.843C68.6901 145.593 69.0101 145.453 69.3201 145.453C69.9901 145.453 70.6401 146.093 70.9701 147.153Z" fill="#662D91"/>
<path d="M36.41 186.959C37.04 188.379 36.89 190.399 36.08 191.489C35.24 192.549 34.05 192.299 33.4 190.889C32.77 189.509 32.92 187.489 33.76 186.389C34.1 185.929 34.51 185.719 34.91 185.719C35.48 185.719 36.04 186.149 36.42 186.959H36.41Z" fill="#662D91"/>
<path d="M3.37993 218.592C4.02993 219.972 3.87993 221.992 3.06993 223.092C2.22993 224.192 1.03993 223.942 0.389931 222.522C-0.240069 221.142 -0.0900676 219.122 0.719932 218.022C1.07993 217.562 1.49993 217.352 1.88993 217.352C2.45993 217.352 3.01993 217.772 3.37993 218.592Z" fill="#662D91"/>
<path d="M1092.69 36.7287C1093.86 36.8387 1094.78 38.4987 1094.72 40.4787C1094.68 42.4587 1093.67 44.0187 1092.5 43.9087C1091.33 43.8387 1090.43 42.1788 1090.47 40.1888C1090.53 38.2388 1091.45 36.7188 1092.61 36.7188H1092.69V36.7287Z" fill="#662D91"/>
<path d="M1052.9 42.5003C1053.03 44.4803 1052.19 46.2503 1051.01 46.4703C1049.86 46.7203 1048.81 45.3003 1048.66 43.3203C1048.53 41.3403 1049.37 39.5703 1050.54 39.3503C1050.62 39.3203 1050.71 39.3203 1050.77 39.3203C1051.86 39.3203 1052.76 40.6703 1052.89 42.5103L1052.9 42.5003Z" fill="#662D91"/>
<path d="M1134.56 45.1247C1135.71 45.5147 1136.47 47.3947 1136.26 49.3347C1136.03 51.2847 1134.92 52.5547 1133.77 52.1647C1132.62 51.8147 1131.86 49.8947 1132.07 47.9547C1132.28 46.2547 1133.16 45.0547 1134.16 45.0547C1134.29 45.0547 1134.43 45.0847 1134.56 45.1247Z" fill="#662D91"/>
<path d="M1011.4 52.135C1011.59 54.085 1010.81 55.925 1009.64 56.275C1008.49 56.595 1007.4 55.245 1007.19 53.295C1007 51.345 1007.8 49.475 1008.95 49.155C1009.08 49.125 1009.18 49.125 1009.31 49.125C1010.34 49.125 1011.24 50.365 1011.4 52.135Z" fill="#662D91"/>
<path d="M970.18 64.8141C970.41 66.7641 969.68 68.6441 968.53 69.0341C967.36 69.4241 966.25 68.1841 966.02 66.2341C965.79 64.2841 966.54 62.3741 967.7 61.9841C967.83 61.9541 967.97 61.9141 968.12 61.9141C969.1 61.9141 969.98 63.1141 970.19 64.8141H970.18Z" fill="#662D91"/>
<path d="M929.13 78.9394C929.38 80.8894 928.65 82.7994 927.5 83.2294C926.35 83.6194 925.22 82.3794 924.99 80.4294C924.74 78.4794 925.47 76.5694 926.62 76.1794C926.77 76.1094 926.91 76.1094 927.06 76.1094C928.04 76.1094 928.92 77.2394 929.13 78.9394Z" fill="#662D91"/>
<path d="M888.14 93.5722C888.39 95.5222 887.66 97.4322 886.51 97.8622C885.36 98.2922 884.23 97.0522 883.97 95.1022C883.74 93.1522 884.47 91.2422 885.62 90.8122C885.77 90.7722 885.91 90.7422 886.06 90.7422C887.04 90.7422 887.92 91.9122 888.13 93.5722H888.14Z" fill="#662D91"/>
<path d="M1213.56 93.9587C1214.59 94.9487 1214.94 97.1488 1214.36 98.8488C1213.77 100.579 1212.48 101.189 1211.45 100.199C1210.44 99.2087 1210.09 97.0087 1210.65 95.2787C1211.05 94.1487 1211.78 93.4688 1212.51 93.4688C1212.87 93.4688 1213.22 93.6488 1213.56 93.9688V93.9587Z" fill="#662D91"/>
<path d="M266.21 105.51C266.21 107.49 265.27 109.12 264.09 109.12C262.92 109.12 261.95 107.53 261.95 105.54C261.95 103.52 262.89 101.93 264.07 101.93C265.24 101.93 266.21 103.52 266.21 105.51Z" fill="#662D91"/>
<path d="M306.03 102.993C307.2 103.023 308.12 104.693 308.1 106.673C308.06 108.653 307.07 110.213 305.9 110.183C304.73 110.113 303.81 108.453 303.85 106.463C303.87 104.513 304.84 102.953 305.99 102.953C305.99 102.953 306.01 102.953 306.03 102.993Z" fill="#662D91"/>
<path d="M224.34 107.065C224.38 109.045 223.48 110.715 222.31 110.815C221.14 110.925 220.15 109.395 220.09 107.415C220.03 105.435 220.93 103.735 222.1 103.625H222.2C223.33 103.625 224.27 105.115 224.34 107.055V107.065Z" fill="#662D91"/>
<path d="M847.16 108.268C847.41 110.218 846.68 112.128 845.53 112.558C844.38 112.948 843.25 111.708 843.02 109.758C842.77 107.808 843.5 105.898 844.65 105.508C844.8 105.438 844.94 105.398 845.09 105.398C846.07 105.398 846.95 106.568 847.16 108.268Z" fill="#662D91"/>
<path d="M347.96 106.039C349.13 106.179 350.01 107.879 349.95 109.869C349.87 111.849 348.86 113.339 347.69 113.239C346.52 113.129 345.62 111.399 345.7 109.419C345.76 107.539 346.71 106.049 347.82 106.049H347.97L347.96 106.039Z" fill="#662D91"/>
<path d="M182.6 112.938C182.75 114.918 181.93 116.728 180.78 116.978C179.61 117.258 178.54 115.878 178.39 113.898C178.22 111.948 179.04 110.108 180.21 109.858C180.31 109.828 180.4 109.828 180.48 109.828C181.55 109.828 182.45 111.138 182.6 112.948V112.938Z" fill="#662D91"/>
<path d="M389.79 111.704C390.96 111.884 391.82 113.654 391.7 115.634C391.59 117.614 390.55 119.034 389.37 118.854C388.2 118.674 387.36 116.904 387.46 114.924C387.56 113.084 388.51 111.664 389.57 111.664C389.63 111.664 389.72 111.664 389.78 111.694L389.79 111.704Z" fill="#662D91"/>
<path d="M431.49 119.639C432.64 119.889 433.48 121.689 433.33 123.639C433.18 125.619 432.12 126.999 430.94 126.759C429.77 126.509 428.95 124.709 429.1 122.759C429.25 120.919 430.15 119.609 431.21 119.609C431.29 119.609 431.38 119.609 431.48 119.649L431.49 119.639Z" fill="#662D91"/>
<path d="M806.15 122.61C806.38 124.56 805.63 126.47 804.47 126.86C803.32 127.25 802.21 125.97 801.98 124.03C801.75 122.08 802.48 120.21 803.63 119.82C803.78 119.75 803.92 119.75 804.05 119.75C805.06 119.75 805.93 120.92 806.14 122.62L806.15 122.61Z" fill="#662D91"/>
<path d="M141.49 126.223C141.78 128.133 141.11 130.123 139.98 130.613C138.85 131.143 137.68 130.013 137.38 128.103C137.07 126.193 137.74 124.203 138.87 123.673C139.06 123.603 139.25 123.562 139.44 123.562C140.38 123.562 141.22 124.593 141.49 126.223Z" fill="#662D91"/>
<path d="M473.02 129.549V129.509C474.17 129.829 474.97 131.669 474.8 133.619C474.61 135.599 473.52 136.949 472.37 136.629C471.2 136.349 470.4 134.499 470.59 132.519C470.76 130.749 471.66 129.469 472.68 129.469C472.78 129.469 472.89 129.499 473.01 129.539L473.02 129.549Z" fill="#662D91"/>
<path d="M765.03 136.283C765.26 138.233 764.51 140.143 763.35 140.493C762.2 140.883 761.09 139.603 760.86 137.663C760.63 135.713 761.38 133.833 762.54 133.453C762.69 133.413 762.83 133.383 762.96 133.383C763.97 133.383 764.84 134.583 765.03 136.283Z" fill="#662D91"/>
<path d="M514.39 141.063C515.54 141.413 516.32 143.263 516.13 145.243C515.92 147.193 514.83 148.503 513.68 148.183C512.51 147.833 511.73 145.993 511.92 144.003C512.11 142.263 513.01 141.023 514.03 141.023C514.14 141.023 514.26 141.023 514.39 141.063Z" fill="#662D91"/>
<path d="M723.9 149.558C724.11 151.508 723.33 153.388 722.18 153.738C721.03 154.088 719.92 152.778 719.71 150.828C719.5 148.878 720.28 147.008 721.43 146.648C721.56 146.608 721.68 146.578 721.81 146.578C722.82 146.578 723.72 147.818 723.9 149.548V149.558Z" fill="#662D91"/>
<path d="M101.98 149.56C102.48 151.37 102.02 153.53 100.95 154.34C99.88 155.19 98.6199 154.41 98.1199 152.6C97.6199 150.79 98.0799 148.67 99.1499 147.82C99.4399 147.61 99.76 147.5 100.05 147.5C100.85 147.5 101.62 148.24 101.98 149.55V149.56Z" fill="#662D91"/>
<path d="M555.67 152.72C556.82 153.04 557.62 154.88 557.45 156.83C557.26 158.81 556.17 160.16 555.02 159.84C553.85 159.52 553.05 157.68 553.24 155.73C553.41 153.96 554.31 152.68 555.33 152.68C555.46 152.68 555.56 152.68 555.66 152.72H555.67Z" fill="#662D91"/>
<path d="M682.55 160.791C682.7 162.741 681.88 164.581 680.71 164.831C679.54 165.081 678.47 163.701 678.32 161.711C678.17 159.761 678.99 157.961 680.16 157.671C680.24 157.671 680.33 157.641 680.43 157.641C681.48 157.641 682.4 158.991 682.54 160.791H682.55Z" fill="#662D91"/>
<path d="M597.08 161.781C598.25 161.961 599.11 163.731 599.01 165.711C598.9 167.661 597.86 169.151 596.68 168.971C595.51 168.761 594.65 167.021 594.75 165.041C594.86 163.161 595.78 161.781 596.87 161.781H597.08Z" fill="#662D91"/>
<path d="M640.85 167.338C640.89 169.358 639.97 171.018 638.8 171.088C637.63 171.158 636.64 169.598 636.6 167.618C636.56 165.638 637.46 163.968 638.63 163.898H638.71C639.84 163.898 640.8 165.418 640.85 167.328V167.338Z" fill="#662D91"/>
<path d="M66.15 185.87C66.86 187.46 66.67 189.73 65.75 190.94C64.81 192.14 63.49 191.86 62.75 190.27C62.04 188.71 62.23 186.45 63.15 185.24C63.55 184.75 63.99 184.5 64.45 184.5C65.08 184.5 65.73 184.96 66.15 185.88V185.87Z" fill="#662D91"/>
<path d="M33.3497 217.959C34.0797 219.519 33.9397 221.789 33.0397 223.019C32.1197 224.259 30.7797 224.009 30.0397 222.489C29.3097 220.929 29.4297 218.659 30.3497 217.419C30.7497 216.889 31.2097 216.609 31.6897 216.609C32.2997 216.609 32.9297 217.069 33.3397 217.959H33.3497Z" fill="#662D91"/>
<path d="M1127.38 76.9324C1127.34 79.1224 1126.25 80.8624 1124.95 80.7924C1123.65 80.6824 1122.63 78.8424 1122.67 76.6524C1122.73 74.4524 1123.82 72.7524 1125.12 72.8224C1126.42 72.8924 1127.42 74.7324 1127.38 76.9324Z" fill="#662D91"/>
<path d="M1085.53 78.705C1085.68 80.895 1084.73 82.845 1083.44 83.065C1082.14 83.275 1080.99 81.685 1080.86 79.485C1080.71 77.325 1081.66 75.375 1082.95 75.125H1083.2C1084.39 75.125 1085.4 76.645 1085.53 78.705Z" fill="#662D91"/>
<path d="M1167.06 80.0834C1168.34 80.4334 1169.2 82.5234 1168.99 84.6934C1168.76 86.8534 1167.54 88.3034 1166.27 87.9534C1164.99 87.5634 1164.13 85.5134 1164.34 83.3534C1164.55 81.4034 1165.53 80.0234 1166.66 80.0234C1166.79 80.0234 1166.93 80.0634 1167.06 80.0934V80.0834Z" fill="#662D91"/>
<path d="M1044.04 88.2194C1044.25 90.3794 1043.37 92.4294 1042.09 92.7894C1040.81 93.1394 1039.6 91.6594 1039.39 89.4994C1039.18 87.3394 1040.06 85.2894 1041.34 84.9294C1041.47 84.8994 1041.59 84.8594 1041.72 84.8594C1042.85 84.8594 1043.86 86.2794 1044.05 88.2294L1044.04 88.2194Z" fill="#662D91"/>
<path d="M1002.77 100.44C1003 102.6 1002.16 104.69 1000.89 105.08C999.61 105.51 998.38 104.09 998.15 101.89C997.9 99.7297 998.74 97.6797 1000.01 97.2497C1000.18 97.2197 1000.32 97.1797 1000.45 97.1797C1001.58 97.1797 1002.56 98.5297 1002.77 100.44Z" fill="#662D91"/>
<path d="M961.62 113.718C961.87 115.878 961.03 117.968 959.76 118.398C958.48 118.818 957.25 117.408 957 115.248C956.77 113.088 957.61 110.998 958.88 110.578C959.03 110.538 959.17 110.508 959.32 110.508C960.43 110.508 961.41 111.818 961.62 113.728V113.718Z" fill="#662D91"/>
<path d="M295.79 111.07C297.09 111.07 298.13 112.88 298.11 115.07C298.11 117.26 297.06 119.04 295.74 119.04C294.44 119.04 293.39 117.23 293.39 115.04C293.41 112.84 294.46 111.07 295.76 111.07H295.78H295.79Z" fill="#662D91"/>
<path d="M256.24 115.955C256.28 118.145 255.28 119.995 253.96 120.095C252.66 120.165 251.57 118.465 251.53 116.265C251.47 114.065 252.49 112.225 253.79 112.125H253.87C255.13 112.125 256.17 113.825 256.24 115.955Z" fill="#662D91"/>
<path d="M337.72 112.484C339.02 112.554 340.04 114.394 340 116.594C339.96 118.794 338.87 120.524 337.57 120.454C336.27 120.384 335.25 118.544 335.29 116.344C335.33 114.184 336.38 112.484 337.66 112.484H337.72Z" fill="#662D91"/>
<path d="M379.65 116.312C380.95 116.493 381.91 118.403 381.83 120.603C381.73 122.763 380.59 124.433 379.3 124.253C378 124.113 377.04 122.203 377.12 120.003C377.23 117.913 378.25 116.322 379.47 116.322H379.66L379.65 116.312Z" fill="#662D91"/>
<path d="M214.44 120.704C214.59 122.904 213.67 124.884 212.37 125.094C211.07 125.344 209.92 123.784 209.77 121.584C209.62 119.384 210.57 117.444 211.84 117.194C211.92 117.164 212.03 117.164 212.11 117.164C213.28 117.164 214.31 118.684 214.43 120.704H214.44Z" fill="#662D91"/>
<path d="M421.43 122.999C422.73 123.249 423.67 125.229 423.5 127.389C423.35 129.579 422.2 131.139 420.9 130.899C419.6 130.649 418.68 128.699 418.83 126.509C418.98 124.489 419.98 122.969 421.17 122.969C421.25 122.969 421.34 122.969 421.42 122.999H421.43Z" fill="#662D91"/>
<path d="M920.46 126.971C920.71 129.131 919.85 131.221 918.57 131.611C917.29 132.041 916.06 130.621 915.83 128.421C915.6 126.261 916.44 124.201 917.71 123.781C917.86 123.741 918 123.711 918.13 123.711C919.26 123.711 920.25 125.061 920.46 126.971Z" fill="#662D91"/>
<path d="M1247.03 124.562C1248.18 125.552 1248.64 127.962 1248.04 129.912C1247.43 131.862 1246.01 132.642 1244.86 131.612C1243.71 130.622 1243.27 128.212 1243.85 126.232C1244.27 124.882 1245.11 124.102 1245.94 124.102C1246.32 124.102 1246.69 124.242 1247.03 124.562Z" fill="#662D91"/>
<path d="M173.11 131.895C173.4 134.015 172.63 136.185 171.35 136.675C170.07 137.205 168.82 135.865 168.52 133.735C168.21 131.575 169 129.445 170.26 128.915C170.45 128.845 170.64 128.805 170.8 128.805C171.87 128.805 172.83 130.045 173.1 131.885L173.11 131.895Z" fill="#662D91"/>
<path d="M463.05 132.243C464.35 132.593 465.23 134.613 465.04 136.773C464.85 138.973 463.66 140.453 462.36 140.133C461.08 139.813 460.18 137.793 460.37 135.603C460.56 133.623 461.56 132.203 462.72 132.203C462.83 132.203 462.95 132.233 463.06 132.233L463.05 132.243Z" fill="#662D91"/>
<path d="M879.26 139.821C879.49 141.981 878.63 144.071 877.35 144.461C876.07 144.851 874.86 143.401 874.63 141.241C874.4 139.081 875.24 136.991 876.54 136.601C876.67 136.571 876.81 136.531 876.94 136.531C878.07 136.531 879.06 137.881 879.26 139.821Z" fill="#662D91"/>
<path d="M504.46 143.932V143.892C505.74 144.322 506.6 146.372 506.34 148.532C506.11 150.732 504.9 152.142 503.6 151.752C502.32 151.362 501.49 149.272 501.72 147.112C501.93 145.202 502.91 143.852 504.02 143.852C504.17 143.852 504.31 143.852 504.46 143.922V143.932Z" fill="#662D91"/>
<path d="M838 151.972C838.21 154.172 837.35 156.222 836.05 156.572C834.77 156.922 833.56 155.472 833.35 153.312C833.14 151.112 834 149.062 835.28 148.712C835.43 148.672 835.55 148.672 835.68 148.672C836.81 148.672 837.82 150.022 838 151.962V151.972Z" fill="#662D91"/>
<path d="M133.11 152.753C133.61 154.803 133.03 157.113 131.83 157.963C130.64 158.813 129.25 157.823 128.75 155.803C128.27 153.753 128.83 151.413 130.05 150.593C130.34 150.383 130.64 150.273 130.93 150.273C131.85 150.273 132.73 151.233 133.11 152.753Z" fill="#662D91"/>
<path d="M545.61 157.432C546.89 157.852 547.73 159.982 547.45 162.102C547.2 164.262 545.96 165.682 544.69 165.252C543.41 164.792 542.6 162.702 542.85 160.542C543.06 158.662 544.04 157.352 545.15 157.352C545.3 157.352 545.46 157.352 545.61 157.422V157.432Z" fill="#662D91"/>
<path d="M796.64 163.128C796.83 165.328 795.95 167.338 794.65 167.698C793.37 168.018 792.18 166.528 791.97 164.328C791.78 162.168 792.66 160.148 793.96 159.798C794.07 159.758 794.19 159.758 794.32 159.758C795.45 159.758 796.46 161.178 796.64 163.128Z" fill="#662D91"/>
<path d="M755.21 173.723C755.4 175.923 754.5 177.943 753.22 178.253C751.92 178.573 750.73 177.053 750.54 174.853C750.37 172.693 751.25 170.673 752.55 170.353C752.66 170.313 752.76 170.312 752.89 170.312C754.04 170.312 755.05 171.732 755.21 173.712V173.723Z" fill="#662D91"/>
<path d="M586.71 170.851C587.99 171.241 588.85 173.331 588.59 175.491C588.38 177.651 587.14 179.101 585.87 178.711C584.59 178.321 583.73 176.231 583.96 174.071C584.17 172.161 585.15 170.781 586.28 170.781C586.41 170.781 586.55 170.811 586.7 170.851H586.71Z" fill="#662D91"/>
<path d="M713.68 182.754C713.8 184.954 712.86 186.894 711.56 187.144C710.28 187.354 709.11 185.764 708.98 183.564C708.83 181.364 709.8 179.424 711.07 179.204C711.15 179.164 711.24 179.164 711.32 179.164C712.51 179.164 713.54 180.684 713.67 182.744L713.68 182.754Z" fill="#662D91"/>
<path d="M627.95 181.155H627.97C629.25 181.365 630.19 183.355 630.06 185.515C629.91 187.715 628.76 189.305 627.46 189.095C626.16 188.845 625.22 186.895 625.37 184.705C625.5 182.655 626.52 181.125 627.72 181.125C627.8 181.125 627.87 181.125 627.95 181.155Z" fill="#662D91"/>
<path d="M95.9496 185.16C96.6796 187 96.4096 189.48 95.3196 190.72C94.2496 191.96 92.7796 191.5 92.0496 189.66C91.3196 187.85 91.5896 185.37 92.6596 184.14C93.0796 183.68 93.5396 183.43 93.9996 183.43C94.7296 183.43 95.4896 184.03 95.9496 185.16Z" fill="#662D91"/>
<path d="M671.89 187.783C671.93 190.013 670.91 191.823 669.59 191.853C668.29 191.923 667.22 190.193 667.18 187.993C667.16 185.793 668.19 183.953 669.48 183.923V183.883H669.54C670.82 183.883 671.87 185.623 671.89 187.783Z" fill="#662D91"/>
<path d="M62.9897 216.824C63.8097 218.524 63.6797 221.034 62.6797 222.424C61.6697 223.844 60.2097 223.624 59.3697 221.924C58.5297 220.224 58.6797 217.714 59.6597 216.334C60.0997 215.694 60.6397 215.414 61.1697 215.414C61.8597 215.414 62.5297 215.874 62.9897 216.834V216.824Z" fill="#662D91"/>
<path d="M1159.23 112.478C1159.19 114.888 1158.01 116.838 1156.59 116.768C1155.17 116.728 1154.04 114.748 1154.06 112.338C1154.08 109.928 1155.25 107.978 1156.7 108.048V108.008C1158.12 108.078 1159.25 110.058 1159.23 112.468V112.478Z" fill="#662D91"/>
<path d="M1117.38 114.792C1117.53 117.202 1116.48 119.362 1115.05 119.572C1113.63 119.822 1112.37 118.052 1112.22 115.642C1112.09 113.272 1113.12 111.112 1114.54 110.892C1114.62 110.852 1114.71 110.852 1114.79 110.852C1116.11 110.852 1117.24 112.552 1117.37 114.782L1117.38 114.792Z" fill="#662D91"/>
<path d="M1198.73 113.585C1200.15 113.935 1201.14 116.135 1200.93 118.545C1200.74 120.915 1199.44 122.585 1198.02 122.265C1196.62 121.945 1195.61 119.715 1195.82 117.345C1196.01 115.155 1197.1 113.555 1198.38 113.555C1198.51 113.555 1198.63 113.585 1198.74 113.585H1198.73Z" fill="#662D91"/>
<path d="M327.35 120.242C328.77 120.272 329.93 122.262 329.91 124.672C329.89 127.082 328.72 129.032 327.29 128.992C325.87 128.962 324.71 126.972 324.73 124.562C324.75 122.152 325.9 120.242 327.31 120.242H327.35Z" fill="#662D91"/>
<path d="M288.02 124.952C288.06 127.392 286.93 129.382 285.51 129.452C284.09 129.522 282.89 127.612 282.85 125.202C282.81 122.792 283.94 120.772 285.36 120.742H285.42C286.82 120.742 287.98 122.622 288.02 124.962V124.952Z" fill="#662D91"/>
<path d="M1075.89 124.422C1076.12 126.792 1075.16 129.032 1073.75 129.412C1072.35 129.802 1071.01 128.212 1070.78 125.802C1070.55 123.432 1071.51 121.202 1072.92 120.812C1073.07 120.782 1073.21 120.742 1073.34 120.742C1074.6 120.742 1075.69 122.262 1075.9 124.422H1075.89Z" fill="#662D91"/>
<path d="M369.3 122.079C370.72 122.189 371.84 124.199 371.77 126.649C371.71 129.059 370.49 130.899 369.07 130.789C367.65 130.679 366.54 128.659 366.6 126.219C366.66 123.879 367.81 122.039 369.2 122.039C369.2 122.039 369.26 122.079 369.3 122.079Z" fill="#662D91"/>
<path d="M246.19 128.704C246.32 131.114 245.27 133.234 243.84 133.454C242.42 133.664 241.16 131.894 241.03 129.484C240.9 127.074 241.95 124.954 243.38 124.734H243.61C244.93 124.734 246.06 126.434 246.19 128.704Z" fill="#662D91"/>
<path d="M411.21 126.898C412.63 127.108 413.68 129.238 413.56 131.648C413.43 134.058 412.18 135.828 410.75 135.618C409.33 135.408 408.28 133.278 408.41 130.868C408.53 128.598 409.67 126.898 410.99 126.898H411.22H411.21Z" fill="#662D91"/>
<path d="M1034.61 136.502C1034.86 138.872 1033.94 141.142 1032.54 141.572C1031.14 142.032 1029.78 140.442 1029.52 138.062C1029.27 135.692 1030.21 133.422 1031.61 132.992C1031.76 132.922 1031.92 132.922 1032.07 132.922C1033.28 132.922 1034.37 134.372 1034.6 136.502H1034.61Z" fill="#662D91"/>
<path d="M204.68 138.018C204.95 140.388 204.05 142.688 202.65 143.148C201.25 143.608 199.89 142.088 199.61 139.718C199.32 137.348 200.24 135.038 201.64 134.578C201.81 134.508 201.98 134.508 202.14 134.508C203.33 134.508 204.42 135.928 204.67 138.018H204.68Z" fill="#662D91"/>
<path d="M452.96 134.829C454.38 135.149 455.37 137.349 455.18 139.749C454.99 142.119 453.69 143.819 452.27 143.499C450.87 143.179 449.86 140.989 450.05 138.579C450.24 136.389 451.35 134.789 452.63 134.789C452.73 134.789 452.86 134.789 452.97 134.819L452.96 134.829Z" fill="#662D91"/>
<path d="M494.47 145.672C495.87 146.102 496.82 148.362 496.56 150.742C496.31 153.112 494.97 154.712 493.56 154.282C492.16 153.852 491.22 151.592 491.47 149.212C491.68 147.092 492.77 145.602 494 145.602C494.15 145.602 494.29 145.602 494.46 145.672H494.47Z" fill="#662D91"/>
<path d="M993.41 149.251C993.66 151.621 992.72 153.891 991.32 154.311C989.92 154.741 988.58 153.141 988.3 150.771C988.07 148.401 988.99 146.131 990.39 145.711C990.56 145.671 990.7 145.641 990.85 145.641C992.09 145.641 993.17 147.131 993.4 149.251H993.41Z" fill="#662D91"/>
<path d="M164.25 156.432C164.75 158.732 164.06 161.212 162.72 162.062C161.38 162.873 159.89 161.713 159.41 159.443C158.91 157.173 159.6 154.662 160.94 153.842C161.23 153.662 161.53 153.562 161.84 153.562C162.89 153.562 163.87 154.662 164.25 156.432Z" fill="#662D91"/>
<path d="M952.13 161.391C952.36 163.761 951.4 165.991 949.99 166.421C948.59 166.811 947.27 165.181 947.02 162.811C946.79 160.441 947.75 158.171 949.16 157.781C949.29 157.751 949.43 157.711 949.58 157.711C950.82 157.711 951.93 159.231 952.13 161.391Z" fill="#662D91"/>
<path d="M535.67 159.342C537.07 159.872 537.95 162.172 537.66 164.552C537.34 166.922 535.96 168.412 534.58 167.922C533.18 167.392 532.3 165.092 532.59 162.712C532.86 160.662 533.93 159.242 535.12 159.242C535.29 159.242 535.48 159.282 535.66 159.352L535.67 159.342Z" fill="#662D91"/>
<path d="M910.76 172.618C910.97 175.028 910.01 177.258 908.58 177.608H908.6C907.18 177.958 905.86 176.338 905.65 173.928C905.44 171.558 906.4 169.328 907.81 168.968C907.96 168.938 908.08 168.898 908.21 168.898C909.47 168.898 910.58 170.458 910.76 172.618Z" fill="#662D91"/>
<path d="M576.55 174.96C577.95 175.49 578.81 177.83 578.5 180.2C578.19 182.54 576.8 184.03 575.4 183.46C574.02 182.93 573.14 180.59 573.47 178.22C573.74 176.2 574.79 174.82 575.98 174.82C576.17 174.82 576.36 174.89 576.55 174.96Z" fill="#662D91"/>
<path d="M869.31 182.821C869.5 185.191 868.51 187.391 867.09 187.711C865.67 188.061 864.37 186.361 864.18 183.961C863.99 181.591 864.98 179.391 866.4 179.071C866.5 179.031 866.63 179.031 866.73 179.031C868.01 179.031 869.12 180.621 869.31 182.821Z" fill="#662D91"/>
<path d="M126.18 185.762C126.91 187.852 126.51 190.512 125.28 191.752C124.04 192.992 122.47 192.282 121.74 190.232C121.01 188.142 121.43 185.452 122.64 184.242C123.06 183.812 123.52 183.602 123.96 183.602C124.84 183.602 125.7 184.382 126.18 185.762Z" fill="#662D91"/>
<path d="M827.76 191.669C827.91 194.079 826.9 196.239 825.48 196.489C824.06 196.769 822.78 195.039 822.61 192.669C822.46 190.259 823.47 188.099 824.89 187.819C825 187.789 825.08 187.789 825.18 187.789C826.48 187.789 827.59 189.459 827.76 191.689V191.669Z" fill="#662D91"/>
<path d="M617.39 190.148C618.79 190.648 619.69 192.948 619.42 195.318C619.13 197.688 617.77 199.218 616.36 198.718C614.96 198.258 614.06 195.958 614.35 193.588C614.6 191.498 615.67 190.078 616.89 190.078C617.06 190.078 617.22 190.078 617.39 190.148Z" fill="#662D91"/>
<path d="M786.12 199.542C786.27 201.912 785.24 204.072 783.84 204.322C782.42 204.602 781.14 202.832 780.99 200.462C780.82 198.052 781.87 195.892 783.27 195.642C783.37 195.602 783.46 195.602 783.56 195.602C784.86 195.602 785.99 197.272 786.12 199.532V199.542Z" fill="#662D91"/>
<path d="M658.51 201.589C659.91 201.869 660.94 204.029 660.77 206.439C660.62 208.849 659.33 210.549 657.92 210.259V210.289C656.5 210.009 655.47 207.849 655.64 205.439C655.79 203.209 656.92 201.539 658.22 201.539C658.3 201.539 658.41 201.569 658.51 201.569V201.589Z" fill="#662D91"/>
<path d="M744.42 206.188C744.53 208.598 743.46 210.688 742.03 210.858C740.61 211.038 739.37 209.228 739.26 206.818C739.16 204.408 740.22 202.318 741.65 202.148H741.84C743.18 202.148 744.33 203.878 744.42 206.188Z" fill="#662D91"/>
<path d="M702.6 209.524C702.6 211.934 701.45 213.884 700.02 213.914C698.6 213.914 697.44 211.964 697.42 209.554C697.42 207.144 698.57 205.164 700 205.164H700.02C701.44 205.164 702.6 207.114 702.6 209.524Z" fill="#662D91"/>
<path d="M92.3101 215.232C93.2301 217.072 93.0901 219.832 92.0001 221.392C90.9101 222.952 89.2801 222.702 88.3601 220.862C87.4401 219.022 87.5801 216.262 88.6701 214.702C89.1501 214.032 89.7601 213.672 90.3501 213.672C91.0801 213.672 91.8201 214.202 92.3201 215.232H92.3101Z" fill="#662D91"/>
<path d="M319.62 134.092C319.64 136.712 318.41 138.872 316.86 138.912C315.31 138.982 314.03 136.892 313.99 134.272C313.97 131.612 315.21 129.452 316.75 129.422H316.81C318.34 129.422 319.57 131.472 319.62 134.092Z" fill="#662D91"/>
<path d="M358.75 129.447C360.3 129.487 361.53 131.648 361.51 134.268C361.49 136.888 360.21 139.017 358.64 138.938C357.09 138.908 355.85 136.737 355.88 134.117C355.9 131.497 357.16 129.438 358.71 129.438H358.75V129.447Z" fill="#662D91"/>
<path d="M400.72 131.93C402.27 132.07 403.46 134.34 403.38 136.96C403.28 139.58 401.93 141.6 400.39 141.42C398.84 141.28 397.67 139.01 397.75 136.39C397.83 133.87 399.09 131.93 400.56 131.93H400.73H400.72Z" fill="#662D91"/>
<path d="M277.75 136.921C277.88 139.541 276.7 141.841 275.15 142.021C273.6 142.231 272.26 140.251 272.13 137.631C272.02 135.011 273.18 132.741 274.73 132.531H274.96C276.41 132.531 277.64 134.441 277.74 136.921H277.75Z" fill="#662D91"/>
<path d="M442.61 137.915C444.16 138.195 445.27 140.535 445.1 143.155C444.93 145.775 443.53 147.655 442 147.365C440.45 147.085 439.34 144.745 439.51 142.125C439.66 139.685 440.87 137.875 442.3 137.875C442.41 137.875 442.51 137.905 442.61 137.905V137.915Z" fill="#662D91"/>
<path d="M236.14 144.64C236.39 147.23 235.36 149.71 233.84 150.13H233.82C232.29 150.56 230.85 148.82 230.59 146.2C230.34 143.61 231.37 141.17 232.89 140.75C233.06 140.71 233.2 140.68 233.37 140.68C234.71 140.68 235.9 142.34 236.14 144.65V144.64Z" fill="#662D91"/>
<path d="M1190.25 147.125C1190.27 149.745 1189.01 151.905 1187.46 151.905C1185.91 151.935 1184.63 149.815 1184.63 147.195C1184.61 144.535 1185.87 142.415 1187.42 142.375H1187.44C1188.99 142.375 1190.25 144.495 1190.25 147.115V147.125Z" fill="#662D91"/>
<path d="M1229.56 145.743C1231.09 145.993 1232.22 148.333 1232.07 150.953C1231.9 153.573 1230.52 155.483 1228.97 155.203C1227.42 154.923 1226.31 152.583 1226.46 149.993C1226.61 147.553 1227.84 145.703 1229.27 145.703C1229.35 145.703 1229.46 145.703 1229.56 145.733V145.743Z" fill="#662D91"/>
<path d="M1148.42 150.588C1148.59 153.208 1147.48 155.548 1145.93 155.828C1144.38 156.108 1143 154.198 1142.83 151.578C1142.68 148.988 1143.79 146.658 1145.34 146.368C1145.45 146.328 1145.53 146.328 1145.63 146.328C1147.05 146.328 1148.27 148.138 1148.42 150.578V150.588Z" fill="#662D91"/>
<path d="M484.27 147.264C485.8 147.694 486.85 150.134 486.62 152.714C486.37 155.304 484.94 157.074 483.39 156.684C481.86 156.254 480.81 153.854 481.04 151.234C481.27 148.894 482.46 147.234 483.83 147.234C483.98 147.234 484.12 147.234 484.27 147.274V147.264Z" fill="#662D91"/>
<path d="M1106.97 160.585C1107.22 163.175 1106.19 165.615 1104.67 166.035C1103.14 166.495 1101.68 164.765 1101.42 162.145C1101.17 159.555 1102.2 157.115 1103.72 156.695C1103.89 156.625 1104.03 156.625 1104.2 156.625C1105.54 156.625 1106.73 158.255 1106.96 160.595L1106.97 160.585Z" fill="#662D91"/>
<path d="M1271.2 157.248C1272.73 157.848 1273.67 160.398 1273.31 162.948C1272.98 165.498 1271.47 167.128 1269.94 166.528C1268.43 165.958 1267.49 163.378 1267.82 160.828C1268.13 158.628 1269.29 157.148 1270.56 157.148C1270.77 157.148 1270.98 157.178 1271.19 157.258L1271.2 157.248Z" fill="#662D91"/>
<path d="M195.36 160.613C195.84 163.093 195.05 165.782 193.56 166.592C192.09 167.402 190.5 166.022 190.02 163.542C189.52 161.032 190.33 158.333 191.82 157.523C192.09 157.383 192.41 157.312 192.68 157.312C193.87 157.312 194.98 158.593 195.36 160.603V160.613Z" fill="#662D91"/>
<path d="M525.61 159.94C527.14 160.47 528.1 162.99 527.81 165.57C527.5 168.16 525.99 169.78 524.48 169.25C522.95 168.72 521.97 166.2 522.28 163.65C522.55 161.38 523.73 159.82 525.05 159.82C525.24 159.82 525.43 159.86 525.62 159.93L525.61 159.94Z" fill="#662D91"/>
<path d="M1065.71 172.83C1065.98 175.42 1064.98 177.9 1063.45 178.39C1061.92 178.85 1060.45 177.12 1060.18 174.53C1059.89 171.94 1060.91 169.46 1062.44 169C1062.61 168.96 1062.77 168.93 1062.94 168.93C1064.28 168.93 1065.45 170.52 1065.7 172.82L1065.71 172.83Z" fill="#662D91"/>
<path d="M566.54 175.882C568.05 176.522 568.97 179.102 568.59 181.652C568.21 184.202 566.68 185.762 565.18 185.122C563.67 184.482 562.75 181.902 563.13 179.352C563.47 177.192 564.62 175.742 565.87 175.742C566.1 175.742 566.31 175.772 566.54 175.882Z" fill="#662D91"/>
<path d="M1024.47 185.305C1024.74 187.925 1023.7 190.375 1022.17 190.795C1020.64 191.255 1019.19 189.525 1018.92 186.895C1018.67 184.305 1019.7 181.865 1021.22 181.445C1021.39 181.375 1021.53 181.375 1021.7 181.375C1023.04 181.375 1024.23 183.005 1024.46 185.305H1024.47Z" fill="#662D91"/>
<path d="M156.59 187.253C157.32 189.593 156.8 192.463 155.42 193.663C154.04 194.903 152.34 194.013 151.61 191.683C150.9 189.343 151.42 186.473 152.8 185.273C153.22 184.883 153.66 184.703 154.1 184.703C155.13 184.703 156.09 185.623 156.59 187.253Z" fill="#662D91"/>
<path d="M983.11 196.633C983.36 199.223 982.29 201.663 980.74 202.053V202.023C979.21 202.413 977.79 200.643 977.56 198.053C977.33 195.433 978.38 193.023 979.93 192.633C980.06 192.593 980.2 192.562 980.35 192.562C981.71 192.562 982.91 194.263 983.11 196.633Z" fill="#662D91"/>
<path d="M607.13 193.624C608.64 194.294 609.54 196.884 609.14 199.434C608.74 201.984 607.21 203.504 605.7 202.834C604.19 202.194 603.29 199.574 603.69 197.024C604.03 194.894 605.16 193.484 606.41 193.484C606.64 193.484 606.89 193.524 607.12 193.624H607.13Z" fill="#662D91"/>
<path d="M941.64 206.515C941.83 209.105 940.74 211.505 939.21 211.825C937.66 212.175 936.26 210.335 936.05 207.715C935.86 205.095 936.95 202.725 938.48 202.405C938.61 202.375 938.73 202.375 938.86 202.375C940.24 202.375 941.46 204.105 941.65 206.515H941.64Z" fill="#662D91"/>
<path d="M647.7 210.548C649.21 211.148 650.17 213.697 649.84 216.247C649.5 218.797 648 220.427 646.47 219.857C644.96 219.287 644 216.708 644.33 214.158C644.65 211.958 645.8 210.438 647.1 210.438C647.29 210.438 647.5 210.478 647.71 210.548H647.7Z" fill="#662D91"/>
<path d="M900.04 211.875C900.21 214.495 899.08 216.835 897.53 217.115C896 217.395 894.6 215.485 894.43 212.865C894.28 210.275 895.39 207.945 896.94 207.655C897.04 207.625 897.13 207.625 897.23 207.625C898.65 207.625 899.87 209.435 900.04 211.875Z" fill="#662D91"/>
<path d="M858.33 217.141C858.46 219.761 857.3 222.061 855.75 222.281C854.2 222.491 852.84 220.541 852.71 217.921C852.58 215.301 853.74 213.001 855.29 212.781H855.52C856.99 212.781 858.2 214.661 858.33 217.141Z" fill="#662D91"/>
<path d="M816.58 221.844C816.68 224.464 815.51 226.734 813.96 226.914C812.41 227.094 811.07 225.104 810.94 222.484C810.83 219.864 812.01 217.594 813.56 217.414H813.77C815.24 217.414 816.47 219.324 816.58 221.844Z" fill="#662D91"/>
<path d="M121.42 213.498C122.4 215.518 122.24 218.528 121.04 220.188C119.85 221.848 118.07 221.568 117.08 219.548C116.1 217.528 116.26 214.518 117.46 212.858C117.98 212.108 118.61 211.758 119.24 211.758C120.06 211.758 120.85 212.358 121.42 213.488V213.498Z" fill="#662D91"/>
<path d="M351.08 143.264C351.1 146.094 349.74 148.434 348.06 148.474C346.38 148.474 345 146.204 344.98 143.374C344.96 140.544 346.32 138.204 348 138.164H348.04C349.69 138.164 351.06 140.434 351.08 143.264Z" fill="#662D91"/>
<path d="M390 138.625H389.98C391.68 138.695 393 141.065 392.98 143.905C392.94 146.735 391.56 149.005 389.86 148.935C388.19 148.865 386.84 146.525 386.89 143.695C386.93 140.865 388.29 138.635 389.95 138.635H390.01L390 138.625Z" fill="#662D91"/>
<path d="M309.19 145.35C309.29 148.18 308.02 150.63 306.34 150.77C304.66 150.95 303.22 148.79 303.11 145.95C303.03 143.12 304.3 140.67 305.98 140.5H306.15C307.76 140.5 309.1 142.59 309.19 145.35Z" fill="#662D91"/>
<path d="M431.99 142.134C433.67 142.344 434.92 144.824 434.8 147.664C434.68 150.494 433.21 152.624 431.53 152.374C429.85 152.164 428.6 149.684 428.72 146.844C428.85 144.154 430.19 142.094 431.76 142.094C431.84 142.094 431.91 142.094 431.99 142.124V142.134Z" fill="#662D91"/>
<path d="M267.49 151.718C267.72 154.518 266.57 157.138 264.89 157.528C263.21 157.918 261.68 155.938 261.45 153.138C261.22 150.308 262.37 147.718 264.05 147.328C264.2 147.288 264.32 147.258 264.47 147.258C265.96 147.258 267.28 149.138 267.49 151.718Z" fill="#662D91"/>
<path d="M473.82 149.421C475.5 149.771 476.67 152.361 476.46 155.191C476.23 157.991 474.7 160.011 473.05 159.621C471.37 159.271 470.2 156.681 470.41 153.851C470.62 151.261 471.92 149.391 473.43 149.391C473.55 149.391 473.7 149.391 473.83 149.421H473.82Z" fill="#662D91"/>
<path d="M515.37 160.445C517.02 160.945 518.11 163.635 517.8 166.435C517.51 169.235 515.91 171.075 514.26 170.575C512.61 170.045 511.52 167.355 511.83 164.585C512.1 162.105 513.38 160.375 514.8 160.375C514.99 160.375 515.18 160.375 515.37 160.445Z" fill="#662D91"/>
<path d="M226.4 165.22C226.86 167.95 225.92 170.78 224.31 171.56V171.6C222.7 172.38 221 170.79 220.54 168.06C220.08 165.33 221.02 162.46 222.63 161.68C222.9 161.54 223.2 161.5 223.47 161.5C224.79 161.5 226 162.95 226.4 165.22Z" fill="#662D91"/>
<path d="M556.51 175.242C558.14 175.912 559.15 178.712 558.75 181.442C558.35 184.202 556.7 185.902 555.06 185.232C553.43 184.562 552.42 181.802 552.82 179.032C553.18 176.662 554.41 175.102 555.79 175.102C556.02 175.102 556.27 175.142 556.5 175.242H556.51Z" fill="#662D91"/>
<path d="M1220.45 180.843C1220.51 183.673 1219.19 186.083 1217.52 186.193C1215.84 186.263 1214.42 184.073 1214.36 181.233C1214.3 178.363 1215.62 175.993 1217.29 175.883H1217.4C1219.03 175.883 1220.39 178.043 1220.46 180.843H1220.45Z" fill="#662D91"/>
<path d="M1259.47 176.624H1259.45C1261.13 176.764 1262.43 179.214 1262.32 182.044C1262.22 184.874 1260.77 187.034 1259.09 186.894C1257.41 186.714 1256.14 184.274 1256.24 181.444C1256.32 178.714 1257.69 176.594 1259.28 176.594C1259.34 176.594 1259.4 176.594 1259.47 176.634V176.624Z" fill="#662D91"/>
<path d="M1178.69 186.014C1178.88 188.844 1177.7 191.394 1176.03 191.754C1174.35 192.074 1172.85 190.054 1172.64 187.254C1172.43 184.424 1173.62 181.874 1175.3 181.514C1175.43 181.484 1175.55 181.484 1175.68 181.484C1177.19 181.484 1178.51 183.394 1178.7 186.014H1178.69Z" fill="#662D91"/>
<path d="M1301.4 184.773C1303.05 185.273 1304.14 187.923 1303.87 190.723C1303.58 193.523 1302.01 195.393 1300.35 194.903C1298.7 194.413 1297.59 191.753 1297.86 188.953C1298.13 186.473 1299.41 184.703 1300.85 184.703C1301.04 184.703 1301.21 184.703 1301.4 184.773Z" fill="#662D91"/>
<path d="M187.06 189.338C187.77 191.928 187.12 195.008 185.61 196.208C184.08 197.418 182.26 196.318 181.55 193.768C180.84 191.178 181.49 188.138 183 186.898C183.42 186.578 183.86 186.398 184.3 186.398C185.45 186.398 186.54 187.498 187.06 189.338Z" fill="#662D91"/>
<path d="M1137.28 196.635C1137.57 199.435 1136.48 202.125 1134.81 202.615C1133.18 203.115 1131.58 201.235 1131.29 198.475C1131 195.675 1132.09 192.985 1133.74 192.485C1133.91 192.415 1134.1 192.375 1134.29 192.375C1135.73 192.375 1137.01 194.145 1137.29 196.625L1137.28 196.635Z" fill="#662D91"/>
<path d="M597.1 193.595C598.71 194.375 599.63 197.205 599.17 199.935C598.71 202.665 597.03 204.255 595.42 203.475C593.81 202.695 592.86 199.865 593.33 197.095C593.71 194.825 594.94 193.375 596.26 193.375C596.53 193.375 596.8 193.445 597.1 193.585V193.595Z" fill="#662D91"/>
<path d="M1096.06 207.38C1096.37 210.18 1095.26 212.87 1093.63 213.4V213.37C1091.98 213.9 1090.38 212.06 1090.07 209.26C1089.78 206.46 1090.87 203.77 1092.52 203.28V203.25C1092.71 203.21 1092.9 203.18 1093.06 203.18C1094.51 203.18 1095.78 204.91 1096.06 207.39V207.38Z" fill="#662D91"/>
<path d="M1125.74 219.38C1126.05 222.18 1124.94 224.87 1123.31 225.4V225.37C1121.66 225.9 1120.06 224.06 1119.75 221.26C1119.46 218.46 1120.55 215.77 1122.2 215.28V215.25C1122.39 215.21 1122.58 215.18 1122.74 215.18C1124.19 215.18 1125.46 216.91 1125.74 219.39V219.38Z" fill="#662D91"/>
<path d="M637.31 213.452C638.92 214.232 639.84 217.102 639.38 219.822C638.92 222.552 637.22 224.112 635.61 223.332C634 222.522 633.05 219.682 633.54 216.962C633.92 214.692 635.13 213.242 636.45 213.242C636.74 213.242 637.02 213.312 637.31 213.452Z" fill="#662D91"/>
<path d="M1054.82 213.811C1055.09 216.611 1053.98 219.261 1052.33 219.721C1050.68 220.181 1049.1 218.301 1048.83 215.511C1048.54 212.711 1049.67 210.061 1051.32 209.601C1051.49 209.531 1051.65 209.531 1051.82 209.531C1053.29 209.531 1054.59 211.301 1054.82 213.821V213.811Z" fill="#662D91"/>
<path d="M150.74 212.473C151.72 214.773 151.43 218.003 150.07 219.693V219.663C148.71 221.363 146.82 220.833 145.82 218.563C144.84 216.263 145.13 213.043 146.49 211.373C147.04 210.703 147.66 210.383 148.29 210.383C149.21 210.383 150.15 211.093 150.74 212.473Z" fill="#662D91"/>
<path d="M1013.41 218.545C1013.64 221.375 1012.47 223.965 1010.81 224.355C1009.14 224.745 1007.61 222.765 1007.38 219.965C1007.15 217.135 1008.32 214.545 1010 214.155C1010.13 214.125 1010.27 214.125 1010.4 214.125C1011.91 214.125 1013.21 215.965 1013.42 218.555L1013.41 218.545Z" fill="#662D91"/>
<path d="M382.39 152.499C382.39 155.579 380.92 158.059 379.12 158.059C377.32 158.059 375.85 155.579 375.85 152.529C375.83 149.479 377.29 147.009 379.1 146.969C380.92 146.969 382.39 149.449 382.39 152.499Z" fill="#662D91"/>
<path d="M421.12 147.969C422.94 148.109 424.35 150.659 424.28 153.709C424.2 156.789 422.69 159.159 420.89 159.059C419.09 158.949 417.66 156.369 417.73 153.319C417.81 150.309 419.26 147.969 421 147.969H421.13H421.12Z" fill="#662D91"/>
<path d="M340.5 153.921C340.58 156.971 339.18 159.551 337.38 159.691C335.58 159.831 334.05 157.501 333.97 154.411C333.89 151.361 335.27 148.781 337.07 148.641H337.24C338.98 148.641 340.42 150.941 340.51 153.921H340.5Z" fill="#662D91"/>
<path d="M463.11 152.72C464.91 153 466.23 155.69 466.06 158.74C465.87 161.79 464.28 164.02 462.48 163.73C460.68 163.45 459.36 160.72 459.55 157.67C459.7 154.84 461.12 152.68 462.8 152.68C462.91 152.68 463.01 152.68 463.11 152.72Z" fill="#662D91"/>
<path d="M298.72 159.132C298.95 162.142 297.65 164.902 295.85 165.262H295.87C294.07 165.612 292.43 163.452 292.23 160.412C292.02 157.362 293.3 154.642 295.1 154.282C295.23 154.242 295.35 154.242 295.48 154.242C297.13 154.242 298.54 156.292 298.73 159.132H298.72Z" fill="#662D91"/>
<path d="M504.88 161.501V161.531C506.66 161.991 507.88 164.791 507.6 167.841C507.33 170.851 505.65 172.901 503.87 172.441C502.09 171.981 500.85 169.181 501.13 166.141C501.38 163.411 502.78 161.461 504.38 161.461C504.55 161.461 504.72 161.461 504.88 161.501Z" fill="#662D91"/>
<path d="M257.39 170.462C257.81 173.442 256.72 176.452 254.98 177.152C253.22 177.862 251.44 176.022 251.02 173.042C250.6 170.102 251.69 167.092 253.43 166.382C253.7 166.272 253.95 166.242 254.21 166.242C255.7 166.242 257.04 167.942 257.39 170.452V170.462Z" fill="#662D91"/>
<path d="M546.24 174.431C548.02 175.071 549.13 178.011 548.75 180.981C548.37 183.991 546.64 185.871 544.87 185.231C543.09 184.591 541.98 181.651 542.36 178.641C542.69 176.051 544.06 174.281 545.54 174.281C545.77 174.281 546 174.321 546.23 174.421L546.24 174.431Z" fill="#662D91"/>
<path d="M217.52 191.962C218.23 194.762 217.48 198.022 215.8 199.222C214.15 200.422 212.22 199.112 211.51 196.322C210.8 193.492 211.57 190.232 213.23 189.062C213.65 188.742 214.09 188.602 214.53 188.602C215.79 188.602 217 189.842 217.53 191.972L217.52 191.962Z" fill="#662D91"/>
<path d="M587.08 191.64C588.82 192.45 589.85 195.54 589.34 198.48C588.86 201.42 587.06 203.12 585.3 202.31C583.56 201.46 582.56 198.41 583.06 195.47C583.46 193.03 584.78 191.43 586.2 191.43C586.49 191.43 586.79 191.5 587.08 191.64Z" fill="#662D91"/>
<path d="M1288.46 206.408C1290.26 206.478 1291.71 208.998 1291.69 212.038C1291.67 215.088 1290.18 217.528 1288.36 217.488C1286.56 217.448 1285.11 214.938 1285.13 211.888C1285.15 208.838 1286.62 206.398 1288.42 206.398H1288.46V206.408Z" fill="#662D91"/>
<path d="M1249.82 213.742C1249.95 216.792 1248.58 219.442 1246.78 219.652C1244.98 219.862 1243.41 217.562 1243.28 214.512C1243.15 211.462 1244.52 208.812 1246.32 208.602H1246.55C1248.25 208.602 1249.69 210.802 1249.82 213.742Z" fill="#662D91"/>
<path d="M627.28 212.431C629 213.351 629.94 216.471 629.37 219.371C628.82 222.311 626.98 223.901 625.26 222.951C623.54 221.991 622.6 218.911 623.14 215.971C623.6 213.631 624.88 212.141 626.26 212.141C626.59 212.141 626.93 212.251 627.27 212.421L627.28 212.431Z" fill="#662D91"/>
<path d="M1208.16 217.961C1208.41 220.971 1207.15 223.771 1205.37 224.191V224.231C1203.57 224.651 1201.91 222.531 1201.66 219.521C1201.41 216.471 1202.67 213.681 1204.45 213.251C1204.6 213.211 1204.76 213.211 1204.91 213.211C1206.52 213.211 1207.93 215.191 1208.16 217.961Z" fill="#662D91"/>
<path d="M180.34 212.432C181.35 214.982 180.91 218.412 179.4 220.082C177.89 221.752 175.86 221.042 174.88 218.492C173.9 215.902 174.31 212.512 175.82 210.812C176.39 210.212 176.99 209.922 177.62 209.922C178.69 209.922 179.74 210.812 180.34 212.432Z" fill="#662D91"/>
<path d="M1166.83 219.609C1167.17 222.579 1166.01 225.489 1164.23 226.089C1162.47 226.659 1160.75 224.709 1160.4 221.699C1160.06 218.689 1161.22 215.789 1163 215.219C1163.21 215.149 1163.42 215.109 1163.63 215.109C1165.16 215.109 1166.54 216.949 1166.84 219.609H1166.83Z" fill="#662D91"/>
<path d="M410 155.875C411.95 155.875 413.5 158.565 413.5 161.825C413.5 165.085 411.93 167.735 409.98 167.705C408.05 167.705 406.48 165.045 406.5 161.795C406.5 158.535 408.07 155.885 410 155.885V155.875Z" fill="#662D91"/>
<path d="M371.61 162.598C371.67 165.858 370.16 168.618 368.24 168.728C366.29 168.838 364.68 166.288 364.62 163.028C364.56 159.738 366.07 157.008 367.99 156.898H368.12C369.98 156.898 371.56 159.418 371.62 162.598H371.61Z" fill="#662D91"/>
<path d="M452.05 157.671C454 157.851 455.46 160.641 455.36 163.901C455.25 167.161 453.6 169.641 451.67 169.461C449.74 169.281 448.26 166.521 448.36 163.231C448.47 160.081 450.01 157.641 451.86 157.641C451.92 157.641 451.98 157.671 452.05 157.671Z" fill="#662D91"/>
<path d="M329.78 166.777C329.97 170.037 328.57 172.907 326.64 173.227C324.71 173.547 323 171.177 322.81 167.917C322.62 164.657 324.03 161.757 325.97 161.438H326.31C328.09 161.438 329.62 163.707 329.79 166.787L329.78 166.777Z" fill="#662D91"/>
<path d="M494.01 163.772C495.94 164.162 497.32 167.102 497.09 170.322C496.86 173.582 495.12 175.922 493.19 175.532C491.28 175.142 489.9 172.202 490.13 168.982C490.34 165.932 491.85 163.742 493.59 163.742C493.74 163.742 493.88 163.742 494.01 163.782V163.772Z" fill="#662D91"/>
<path d="M288.29 176.344C288.67 179.534 287.45 182.684 285.55 183.324C283.67 183.994 281.82 181.904 281.42 178.714C281.04 175.494 282.26 172.374 284.16 171.704C284.39 171.634 284.62 171.594 284.85 171.594C286.48 171.594 287.95 173.544 288.29 176.344Z" fill="#662D91"/>
<path d="M535.67 174.251C537.58 174.851 538.83 177.931 538.5 181.121C538.14 184.341 536.32 186.501 534.42 185.901C532.51 185.331 531.26 182.251 531.61 179.031C531.9 176.161 533.39 174.141 535.05 174.141C535.26 174.141 535.47 174.181 535.68 174.251H535.67Z" fill="#662D91"/>
<path d="M576.84 189.303C578.7 190.083 579.83 193.303 579.37 196.493C578.89 199.643 576.98 201.593 575.12 200.783C573.24 199.973 572.1 196.743 572.59 193.593C572.99 190.903 574.41 189.133 575.98 189.133C576.25 189.133 576.55 189.173 576.84 189.313V189.303Z" fill="#662D91"/>
<path d="M247.93 195.039C248.62 198.089 247.72 201.519 245.92 202.689C244.1 203.859 242.09 202.339 241.38 199.259C240.69 196.209 241.59 192.809 243.41 191.609V191.639C243.81 191.359 244.25 191.219 244.67 191.219C246.07 191.219 247.39 192.669 247.94 195.039H247.93Z" fill="#662D91"/>
<path d="M617.29 209.134C619.13 210.164 620.14 213.494 619.55 216.604C618.94 219.724 616.97 221.424 615.13 220.394C613.29 219.404 612.28 216.074 612.87 212.954C613.35 210.444 614.73 208.844 616.22 208.844C616.58 208.844 616.93 208.954 617.29 209.124V209.134Z" fill="#662D91"/>
<path d="M210.02 213.002C211 215.802 210.46 219.452 208.81 221.112C207.16 222.782 205 221.852 204.01 219.062C203 216.262 203.57 212.612 205.22 210.952C205.79 210.382 206.39 210.102 207 210.102C208.19 210.102 209.37 211.162 210.02 213.002Z" fill="#662D91"/>
<path d="M440.72 164.789C442.77 164.819 444.43 167.659 444.41 171.129C444.41 174.639 442.71 177.439 440.66 177.399C438.61 177.369 436.93 174.529 436.95 171.029C436.97 167.589 438.65 164.799 440.7 164.799H440.72V164.789Z" fill="#662D91"/>
<path d="M402.52 171.449C402.58 174.919 400.95 177.819 398.9 177.899C396.83 178.009 395.13 175.239 395.07 171.769C395.03 168.299 396.64 165.399 398.71 165.289H398.79C400.8 165.289 402.48 168.019 402.52 171.449Z" fill="#662D91"/>
<path d="M482.82 167.727C484.87 167.977 486.4 170.987 486.26 174.457C486.11 177.927 484.31 180.548 482.26 180.298C480.21 180.048 478.68 177.007 478.82 173.527C478.97 170.197 480.6 167.688 482.53 167.688C482.64 167.688 482.72 167.687 482.82 167.717V167.727Z" fill="#662D91"/>
<path d="M360.67 174.738C360.84 178.208 359.31 181.257 357.26 181.537C355.21 181.817 353.41 179.238 353.24 175.768C353.07 172.298 354.6 169.247 356.65 168.967C356.75 168.937 356.86 168.938 356.94 168.938C358.87 168.938 360.5 171.447 360.67 174.747V174.738Z" fill="#662D91"/>
<path d="M524.71 175.351C526.76 175.841 528.17 179.031 527.89 182.471C527.6 185.941 525.71 188.311 523.66 187.851C521.63 187.351 520.2 184.171 520.5 180.701C520.75 177.551 522.34 175.281 524.19 175.281C524.36 175.281 524.53 175.311 524.71 175.351Z" fill="#662D91"/>
<path d="M319.06 182.779C319.42 186.219 318.05 189.469 316.02 190.079C313.99 190.679 312.06 188.379 311.71 184.949C311.35 181.509 312.72 178.259 314.75 177.649C314.98 177.579 315.19 177.539 315.4 177.539C317.18 177.539 318.75 179.739 319.07 182.779H319.06Z" fill="#662D91"/>
<path d="M566.22 187.742C568.23 188.452 569.51 191.812 569.09 195.212C568.65 198.612 566.68 200.772 564.67 200.062C562.64 199.312 561.36 195.992 561.78 192.592C562.16 189.622 563.71 187.602 565.45 187.602C565.7 187.602 565.95 187.632 566.22 187.742Z" fill="#662D91"/>
<path d="M278.28 198.761C278.93 202.051 277.9 205.631 275.94 206.761C273.99 207.861 271.88 206.091 271.21 202.791C270.56 199.501 271.61 195.921 273.56 194.781C273.96 194.571 274.36 194.461 274.75 194.461C276.32 194.461 277.77 196.091 278.29 198.751L278.28 198.761Z" fill="#662D91"/>
<path d="M607.11 205.202C609.08 206.162 610.21 209.662 609.62 213.032C609.03 216.362 606.96 218.272 604.99 217.282C603.02 216.292 601.89 212.782 602.46 209.452C602.94 206.692 604.43 204.922 606.04 204.922C606.4 204.922 606.75 205.032 607.11 205.202Z" fill="#662D91"/>
<path d="M239.7 214.173C240.71 217.253 240.04 221.083 238.21 222.743C236.41 224.413 234.15 223.273 233.16 220.233C232.18 217.153 232.85 213.323 234.65 211.663C235.21 211.133 235.82 210.883 236.43 210.883C237.75 210.883 239.03 212.083 239.7 214.173Z" fill="#662D91"/>
<path d="M433.23 180.38C433.27 184.1 431.53 187.14 429.33 187.21C427.15 187.28 425.35 184.34 425.31 180.62C425.27 176.94 427.01 173.89 429.21 173.82H429.27C431.43 173.82 433.19 176.72 433.23 180.37V180.38Z" fill="#662D91"/>
<path d="M471.26 173.859C473.44 173.929 475.18 177.009 475.11 180.729C475.05 184.409 473.25 187.349 471.05 187.249C468.87 187.139 467.13 184.059 467.2 180.379C467.26 176.729 469.02 173.859 471.16 173.859H471.26Z" fill="#662D91"/>
<path d="M391.36 182.933C391.51 186.653 389.85 189.843 387.67 190.083C385.49 190.333 383.61 187.533 383.44 183.853C383.32 180.173 384.95 176.943 387.13 176.703H387.4C389.47 176.703 391.21 179.393 391.36 182.933Z" fill="#662D91"/>
<path d="M513.34 178.141C515.52 178.491 517.11 181.791 516.92 185.471C516.71 189.151 514.76 191.841 512.58 191.491C510.4 191.141 508.81 187.881 509.02 184.201C509.21 180.731 510.95 178.141 512.96 178.141H513.34Z" fill="#662D91"/>
<path d="M349.66 189.694C349.97 193.374 348.49 196.774 346.31 197.304C344.15 197.834 342.14 195.284 341.83 191.634C341.51 187.984 343 184.584 345.16 184.054C345.37 183.984 345.56 183.984 345.75 183.984C347.68 183.984 349.37 186.354 349.67 189.684L349.66 189.694Z" fill="#662D91"/>
<path d="M555.17 187.462C557.33 188.062 558.77 191.532 558.42 195.182C558.04 198.832 556.01 201.272 553.85 200.672C551.69 200.072 550.25 196.602 550.6 192.952C550.91 189.692 552.59 187.352 554.5 187.352C554.71 187.352 554.94 187.392 555.17 187.462Z" fill="#662D91"/>
<path d="M308.56 203.248C309.15 206.828 307.93 210.508 305.84 211.538C303.73 212.568 301.55 210.508 300.94 206.938C300.33 203.398 301.55 199.678 303.66 198.648C304.02 198.468 304.39 198.398 304.75 198.398C306.47 198.398 308.06 200.308 308.56 203.248Z" fill="#662D91"/>
<path d="M596.47 201.943C598.61 202.833 599.88 206.473 599.36 210.053C598.84 213.663 596.68 215.823 594.56 214.943C592.42 214.053 591.15 210.413 591.67 206.833C592.11 203.783 593.72 201.773 595.5 201.773C595.82 201.773 596.15 201.803 596.46 201.953L596.47 201.943Z" fill="#662D91"/>
<path d="M269.33 215.9C270.29 219.19 269.5 223.23 267.55 224.86C265.6 226.53 263.21 225.18 262.25 221.85C261.27 218.56 262.06 214.52 264.03 212.89C264.6 212.39 265.18 212.18 265.79 212.18C267.24 212.18 268.64 213.53 269.33 215.9Z" fill="#662D91"/>
<path d="M463.68 189.408C463.72 193.308 461.86 196.528 459.55 196.558C457.22 196.598 455.34 193.478 455.3 189.548C455.28 185.648 457.14 182.428 459.45 182.398H459.51C461.79 182.398 463.66 185.518 463.68 189.408Z" fill="#662D91"/>
<path d="M501.57 183.28C503.89 183.46 505.67 186.75 505.57 190.68C505.47 194.58 503.52 197.59 501.19 197.41C498.89 197.23 497.11 193.94 497.19 190.01C497.3 186.22 499.16 183.25 501.38 183.25C501.44 183.25 501.51 183.28 501.57 183.28Z" fill="#662D91"/>
<path d="M421.81 191.323C421.94 195.223 420.16 198.553 417.85 198.793V198.763C415.55 198.973 413.56 196.003 413.43 192.103C413.3 188.203 415.08 184.843 417.39 184.633H417.62C419.84 184.633 421.68 187.543 421.81 191.323Z" fill="#662D91"/>
<path d="M543.62 189.124C545.92 189.584 547.56 193.124 547.29 196.984C547.02 200.884 544.92 203.644 542.64 203.184C540.34 202.724 538.7 199.214 538.97 195.324C539.22 191.714 541.04 189.094 543.12 189.094C543.29 189.094 543.46 189.094 543.62 189.124Z" fill="#662D91"/>
<path d="M380.05 196.988C380.32 200.848 378.71 204.388 376.41 204.888C374.11 205.388 372.01 202.618 371.74 198.728C371.45 194.868 373.08 191.328 375.38 190.828H375.36C375.55 190.798 375.72 190.758 375.88 190.758C377.97 190.758 379.78 193.418 380.05 196.988Z" fill="#662D91"/>
<path d="M585.33 200.312C587.59 201.052 589.08 204.772 588.62 208.632C588.18 212.462 585.96 214.972 583.7 214.192C581.42 213.452 579.95 209.692 580.41 205.872C580.79 202.512 582.55 200.172 584.52 200.172C584.77 200.172 585.07 200.202 585.34 200.312H585.33Z" fill="#662D91"/>
<path d="M338.72 208.571C339.26 212.361 337.88 216.181 335.64 217.101C333.4 218.061 331.14 215.721 330.57 211.891C330.02 208.101 331.41 204.281 333.67 203.351C333.98 203.211 334.32 203.141 334.65 203.141C336.53 203.141 338.25 205.341 338.71 208.561L338.72 208.571Z" fill="#662D91"/>
<path d="M298.89 217.173C299.85 220.753 298.91 224.933 296.8 226.553C294.68 228.143 292.21 226.583 291.25 223.013C290.31 219.433 291.25 215.253 293.37 213.623C293.91 213.193 294.5 213.023 295.09 213.023C296.68 213.023 298.21 214.543 298.9 217.173H298.89Z" fill="#662D91"/>
<path d="M487.14 210.441C487.16 214.191 485.38 217.201 483.16 217.201C480.96 217.231 479.18 214.231 479.16 210.471C479.16 206.751 480.94 203.741 483.14 203.711H483.16C485.36 203.711 487.14 206.721 487.14 210.441Z" fill="#662D91"/>
<path d="M445.25 211.652C445.33 215.372 443.62 218.522 441.42 218.662C439.22 218.802 437.36 215.932 437.27 212.182C437.17 208.462 438.88 205.312 441.08 205.172H441.25C443.39 205.172 445.17 208.002 445.25 211.652Z" fill="#662D91"/>
<path d="M525.28 205.703C527.48 205.953 529.13 209.173 529.01 212.893C528.86 216.613 526.98 219.443 524.78 219.203C522.56 218.953 520.91 215.733 521.03 212.013C521.18 208.433 522.94 205.713 525.01 205.713H525.28V205.703Z" fill="#662D91"/>
<path d="M403.42 215.973C403.63 219.693 402.02 222.983 399.84 223.343H399.82C397.64 223.693 395.67 221.003 395.46 217.283C395.25 213.563 396.86 210.273 399.04 209.913C399.19 209.883 399.31 209.883 399.44 209.883C401.47 209.883 403.21 212.503 403.42 215.973Z" fill="#662D91"/>
<path d="M567.23 212.64C569.43 213.14 570.96 216.5 570.67 220.22C570.4 223.9 568.39 226.52 566.19 226.03C564.01 225.54 562.48 222.14 562.76 218.45C563.03 215.05 564.75 212.57 566.72 212.57C566.89 212.57 567.08 212.6 567.24 212.64H567.23Z" fill="#662D91"/>
<path d="M361.89 219.201C362.31 222.881 360.91 226.431 358.75 227.131C356.57 227.841 354.48 225.471 354.06 221.821C353.62 218.171 355.02 214.601 357.2 213.891C357.45 213.821 357.72 213.781 357.98 213.781C359.84 213.781 361.52 215.981 361.9 219.201H361.89Z" fill="#662D91"/>
</g>
<defs>
<clipPath id="clip0_3549_605">
<rect width="1304" height="227" fill="white"/>
</clipPath>
</defs>
</svg>
