<!DOCTYPE svg PUBLIC "-//W3C//DTD SVG 1.1//EN" "http://www.w3.org/Graphics/SVG/1.1/DTD/svg11.dtd">
<!-- Uploaded to: SVG Repo, www.svgrepo.com, Transformed by: SVG Repo Mixer Tools -->
<svg width="800px" height="800px" viewBox="0 0 24 24" fill="none" xmlns="http://www.w3.org/2000/svg">
<g id="SVGRepo_bgCarrier" stroke-width="0"/>
<g id="SVGRepo_tracerCarrier" stroke-linecap="round" stroke-linejoin="round"/>
<g id="SVGRepo_iconCarrier"> <path d="M3 3C3 2.44772 3.44772 2 4 2H19C19.5523 2 20 2.44772 20 3C20 3.55228 19.5523 4 19 4H4C3.44772 4 3 3.55228 3 3Z" fill="#5700c2"/> <path d="M7 6C7 5.44772 7.44772 5 8 5H20C20.5523 5 21 5.44772 21 6C21 6.55228 20.5523 7 20 7H8C7.44772 7 7 6.55228 7 6Z" fill="#5700c2"/> <path d="M10 8C9.44772 8 9 8.44772 9 9C9 9.55228 9.44772 10 10 10H19C19.5523 10 20 9.55228 20 9C20 8.44772 19.5523 8 19 8H10Z" fill="#5700c2"/> <path d="M6 12C6 11.4477 6.44772 11 7 11H15C15.5523 11 16 11.4477 16 12C16 12.5523 15.5523 13 15 13H7C6.44772 13 6 12.5523 6 12Z" fill="#5700c2"/> <path d="M7 14C6.44772 14 6 14.4477 6 15C6 15.5523 6.44772 16 7 16H13C13.5523 16 14 15.5523 14 15C14 14.4477 13.5523 14 13 14H7Z" fill="#5700c2"/> <path d="M9 18C9 17.4477 9.44772 17 10 17H15C15.5523 17 16 17.4477 16 18C16 18.5523 15.5523 19 15 19H10C9.44772 19 9 18.5523 9 18Z" fill="#5700c2"/> <path d="M14 20C13.4477 20 13 20.4477 13 21C13 21.5523 13.4477 22 14 22H16C16.5523 22 17 21.5523 17 21C17 20.4477 16.5523 20 16 20H14Z" fill="#5700c2"/> </g>
</svg>