<svg width="42" height="42" viewBox="0 0 42 42" fill="none" xmlns="http://www.w3.org/2000/svg">
    <path d="M20.617.003c11.635-.209 21.161 9.057 21.38 20.564.219 11.665-8.97 21.191-20.552 21.428A20.957 20.957 0 0 1 .003 21.335C-.177 9.657 9.087.236 20.617.003zm11.417 32.041c.009-.146.022-.254.022-.36 0-2.623.028-5.249-.015-7.872a17.715 17.715 0 0 0-.32-3.13c-.342-1.73-1.304-3.014-3.078-3.476a8.364 8.364 0 0 0-2.266-.263c-1.712.041-3.115.735-4.066 2.216-.023.037-.067.059-.172.15v-1.975h-4.336v14.704h4.519v-.504c0-2.296-.006-4.592.004-6.888.005-.822.07-1.64.449-2.395.493-.983 1.463-1.419 2.783-1.253.925.115 1.548.727 1.753 1.796.1.533.155 1.084.16 1.628.016 2.377.008 4.755.01 7.133v.492h4.557l-.004-.003zm-17.173 0V17.336h-4.513v14.708h4.513zm-2.268-16.77a2.668 2.668 0 0 0 2.658-2.698c-.015-1.434-1.214-2.62-2.654-2.628-1.47-.009-2.68 1.207-2.673 2.688a2.653 2.653 0 0 0 2.67 2.639h-.001z" fill="#fff"/>
</svg>
